<svg enable-background="new 0 0 20 20" viewBox="0 0 20 20" xmlns="http://www.w3.org/2000/svg"><path d="m19.799 5.165-2.375-1.83c-.135-.093-.324-.176-.521-.237-.198-.061-.403-.098-.567-.098h-6.836l.801 5h6.035c.164 0 .369-.037.566-.098s.387-.145.521-.236l2.375-1.832c.135-.091.202-.212.202-.334s-.067-.243-.201-.335zm-11.299-4.165h-1c-.276 0-.5.224-.5.5v3.5h-3.336c-.166 0-.37.037-.567.099-.198.06-.387.143-.521.236l-2.375 1.83c-.135.091-.201.213-.201.335 0 .121.066.242.201.335l2.375 1.832c.134.091.323.175.521.235.197.061.401.098.567.098h3.336v8.5c0 .276.224.5.5.5h1c.276 0 .5-.224.5-.5v-17c0-.276-.224-.5-.5-.5z" fill="#fff"/></svg>