<svg viewBox="0 0 1360.63 287.06" xmlns="http://www.w3.org/2000/svg"><path d="m993.56 80.27h-32.65v195.74h32.65zm-984.64 195.74h144.36v-30.43h-110.96v-236.02h-33.4zm294.47-51.95h-25.24c-2.23 17.44-13.36 26.72-36.74 26.72s-31.91-7.79-31.91-25.98v-10.39c0-14.47 8.54-21.89 29.69-21.89h64.2zm0 51.95h32.65v-126.55c0-46.02-30.06-71.25-75.33-71.25-42.3 0-74.96 25.98-81.64 69.39h33.4c1.48-33.03 12.24-40.45 47.13-40.45 33.77 0 43.79 7.79 43.79 40.45v17.44h-55.67c-44.16 0-73.48 23.38-73.48 55.29 0 33.4 25.24 59.38 61.6 59.38 22.27 0 40.82-10.39 52.7-28.2h14.84v24.5zm124.18-168.05h56.14v-27.7h-56.14v-70.7h-32.94v70.7h-42.66v27.7h42.66v138.34h25.21v29.72h63.5v-29.72h-55.78v-138.34zm111.77 53.38v-4.08c0-34.88 17.81-50.1 56.41-50.1 36.74 0 50.47 14.47 50.47 49.35v4.83zm0 27.46h143.25v-13.73c0-54.55-38.22-96.85-87.21-96.85-52.7 0-92.4 46.02-92.4 104.65 0 56.78 39.34 96.86 92.4 96.86 36.37 0 73.48-26.72 86.47-63.46h-37.85c-2.97 24.12-17.44 34.52-48.62 34.52-39.34 0-56.04-15.59-56.04-53.44zm310.2 87.21h64.57v-266.45h-30.8v236.76h-13.36l-88.32-236.76h-67.54v266.45h30.43v-236.76h16.7zm152.56-243.44c0-14.84-10.76-25.23-24.86-25.23-14.48-.01-25.24 10.38-25.24 25.23 0 14.47 10.76 25.24 25.24 25.24 14.1 0 24.86-10.77 24.86-25.24m313.24 128.77h-106.87v-4.08c0-34.88 17.81-50.1 56.41-50.1 36.74 0 50.47 14.47 50.47 49.35v4.83zm36.37 27.46v-13.73c0-54.55-38.23-96.85-87.21-96.85-52.7 0-92.4 46.02-92.4 104.65 0 56.78 39.33 96.86 92.4 96.86 36.37 0 73.48-26.72 86.46-63.46h-37.85c-2.97 24.12-17.44 34.52-48.62 34.52-39.34 0-56.04-15.59-56.04-53.44v-8.53h143.26zm-254.31-80.84h56.14v-27.7h-56.14v-70.7h-32.94v70.7h-42.66v27.7h42.66v138.34h25.21v29.72h63.5v-29.72h-55.78v-138.34z" fill="#fff"/></svg>