<svg enable-background="new 0 0 1875.2 945.1" viewBox="0 0 1875.2 945.1" xmlns="http://www.w3.org/2000/svg"><path d="m294.5 865.6c4.6-3.2 9.1-6.5 13.8-9.5 23.3-14.7 47.7-27.2 75.1-32.6 7.3-1.5 14.8-2.3 22.3-2.5 32-.9 63.9.3 95.7 3.7 1.6.2 3.2 0 5-.6-6.8-3-13.6-5.9-20.3-8.9-26.9-12.1-53.4-25-77.7-41.8-31.3-21.6-53.6-50.9-69.5-85.3-.1-.3-.1-.6-.2-2.1 6 1.3 11.8 2.2 17.3 3.8 37 10.6 69.6 29.8 100.2 52.5 16 11.9 30.1 25.8 40.5 43 6.1 10.1 10.5 20.7 11.7 32.6.6 5.4-.8 10.1-3.9 14.5-9.9 13.9-23.6 22.7-39 29.3-18.7 8-38.5 11.5-58.6 13.5-28.3 2.7-56.5 3.2-84.6-1.5-9.4-1.6-18.5-4.3-27.8-6.5 0-.5 0-1 0-1.6zm1071-40.3c35.3-3.7 70.7-5.6 106.2-4.3 25.1.9 48.2 9.4 70.1 21.1 13.2 7 25.7 15.1 38.6 22.7l-.3 2.1c-7.4 2-14.7 4.3-22.1 5.8-29.8 5.8-59.9 5.4-90 2.6-19.8-1.8-39.2-5.3-57.7-13-18.8-7.7-34.9-18.6-44.8-37z"/><path d="m1365.5 825.3c.3-18.7 7.7-34.8 18.7-49.5 12.6-16.9 28.5-30.2 45.8-42 27.1-18.4 55.4-34.4 87-43.7 4.3-1.3 8.7-2.2 13.1-3.1 1.7-.4 3.5-.4 6.2-.7-1.9 4.1-3.4 7.5-5.1 10.9-20.6 39.9-50.2 71.1-90.3 91.5-23.2 11.8-46.9 22.8-70.5 34.1-1.7 1-3.3 1.7-4.9 2.5zm264.3-126.8c24.6-36.8 54.5-66.7 91.5-88.9 28-16.8 58.8-25.6 92.7-28.6-3.2 4.5-5.6 8.1-8.2 11.4-26 33.6-56.2 62.7-92.8 84.4-23.4 13.9-48.9 21.5-76.3 22.1-1.9.1-3.8-.2-6.9-.4zm-164 95.3c73.6-24.4 145.8-27.9 216 14.6-1.5.8-2.4 1.3-3.3 1.7-29.2 10-59.2 15-89.9 17-24.4 1.6-48.6.5-72.2-6.2-16.9-4.8-32.8-11.9-47.1-22.3-1.3-1-2.6-2.1-3.8-3.1.1-.6.2-1.1.3-1.7zm324.3-83.1c-19.1 12.6-38.4 22-58.4 29.8-24.1 9.4-48.6 17.1-74.4 20-26.2 2.9-51.8.3-76.4-9.6-1.7-.7-3.3-1.5-5.9-2.8 29.9-20.9 62.4-34.3 96.9-42.8 39.4-9.6 78.4-6.9 118.2 5.4zm-1547-11.1c-9.8-1-19.7-1.5-29.4-3.3-27.9-5-52.5-17.5-74.9-34.5-28.4-21.6-53.6-46.3-74.4-75.3-1-1.5-2-3-3.6-5.4 30.2 2.5 57.8 10.5 83.9 23.8 39.4 20 83.7 65.6 98.8 93 0 0-.4 1.7-.4 1.7zm1299.7 54.2c5.8-41.3 19.3-78.6 40.5-112.9 18.6-30.1 44.2-53.3 74.6-71.1.5.2.9.4 1.4.6-2 9-3.6 18-6 26.9-10.2 37.6-24.4 73.6-47.4 105.4-14.4 20-32.4 36.1-54.5 47.3-2.4 1.1-4.9 2.1-8.6 3.8zm-1327.2-184.7c32.9 19.3 59.4 43.8 78.3 75.9 19.6 33.4 32.5 69.2 37.8 107.6l-1.4 1.4c-8.7-5.3-17.9-10.1-26.1-16-24.9-17.9-42.3-42-55.8-69.2-15.1-30.6-26.4-62.4-32.3-96-.3-.8-.3-1.6-.5-3.7zm194.3 225.6c-14.1 11.6-29.1 18.8-45.2 24.2-26.3 8.7-53.4 10.1-80.8 8.1-30.1-2.2-59.7-7.1-88.3-17-.8-.3-1.5-.6-2.4-.9 17.8-14.3 65.6-32.7 105.8-33.1 37.8-.4 74.5 5 110.9 18.7zm-110.4-46.6c-11.1 5.8-22.1 8.8-33.3 10.9-27.9 5.2-55.3 2.5-82.4-4.9-32.1-8.7-62.6-21-91.2-38.1-2.4-1.4-4.7-3-8.1-5.2 37.6-11.7 74.5-14.8 112-6.7 36.7 8 71 22.1 103 44zm1413-337.6c2.5 13.3 5.6 26.5 7.3 39.9 3.8 28.8 4.8 57.7.3 86.5-4.2 27.2-14 52.2-31.7 73.7-1 1.3-2.2 2.4-4 4.3-11-35.1-13.9-70.3-10.9-105.9 3.1-36.2 16.4-68.9 37-98.6h2zm-1522.4 204.7c-9.4-9.8-15.9-20.2-21.3-31.2-11.3-22.9-16.1-47.4-17-72.8-1.1-31.6 1.4-62.8 8.9-93.5.4-1.8.9-3.5 1.4-5.3.2-.6.5-1.2 1.1-2.7 20.9 30.3 34.3 62.7 37.5 98.9 3.3 35.7.2 70.9-10.6 106.6zm1559.8-172.2c-45.8-50.5-73.7-106.2-64.9-176.3 1.1.7 1.8 1 2.3 1.5 29.2 33 52.3 69.6 63.2 112.8 4.8 19.2 5.2 38.8.7 58.3-.2.7-.5 1.5-1.3 3.7zm-1604.2 133.1c-23.8-1.9-45-9.9-63.9-23.2-34.3-24.1-60.4-55.8-81.1-92.1-.3-.6-.5-1.2-.8-1.9 48.9 2 130.8 67.7 145.8 117.2zm21.1-375.5c-6.1-11.6-9.1-23.1-11.1-34.9-5.1-30.6 1.2-59.9 10.6-88.8 6.3-19.5 14.4-38.3 24.7-56 1.1-1.8 2.2-3.6 4-6.6 10.8 32.2 14.1 63.7 7.9 96-6.1 32-17.7 61.8-36.1 90.3zm1420.8-74c14.4 8.2 29.2 15.7 43.1 24.6 24.3 15.6 46.8 33.5 63.7 57.4 10 14.1 17.4 29.4 21.2 46.3.5 2.1.8 4.1 1.2 6.4-52.1-12-124.9-86.6-130.3-133.2.4-.5.8-1 1.1-1.5zm165.1 366.6c4.1-35.5 15.2-68.4 33.4-98.9 15.3-25.7 36.6-45.7 61.9-61.5.5.2 1 .4 1.5.6-2.8 12.2-5.1 24.5-8.5 36.5-8.4 29.4-19.6 57.6-37.9 82.4-11.8 16-26.2 29.1-43.8 38.5-1.5.8-3 1.5-4.5 2.1-.4.5-.9.3-2.1.3zm-1721.7-292.2c55.1 45.5 72.9 105.1 74.2 173.4-2.6-1.5-4.3-2.3-5.8-3.4-22.8-16.3-38.2-38.3-48.3-64.1-12.4-32-19.1-65.4-20.1-99.8-.1-1.5 0-3.1 0-6.1zm1629.2-50.6c-48.3-17-110.6-101.6-110.6-150.1.7.2 1.3.3 1.8.7 34.9 21.7 64.8 48.7 87.6 83.1 11.4 17.3 18.4 36.4 21 57 .3 2.3.3 4.6.4 7 0 .7-.2 1.5-.2 2.3zm-1371.3-23.4c-20.6 68.4-68.8 108-131.3 135.4 1.5-12.1 5.2-22.4 9.9-32.3 9.4-19.9 22.9-36.5 39.4-50.9 22.6-19.9 47.4-36.6 74.8-49.1 2-1 4.1-1.8 7.2-3.1zm1466.5-19.9c8.6 20.7 14 41 17.4 61.8 3.4 21 5.8 42.2 3.3 63.5-2.6 22.4-9.2 43.4-23 63.1-12.4-27.5-18.5-55.6-20.7-84.7-2.7-36.4 5.4-70.4 23-103.7zm119.7 352.3c-5.8 9-11.2 18.3-17.5 27-17.9 25-38.2 47.9-63.6 65.6-18.6 12.9-39 21.4-61.7 23.8-1.1.1-2.3.1-4.2.2 15.7-31.1 36.8-57.2 62.9-79.1 24.2-20.1 52.4-32.4 84.1-37.5zm-194-444.6c7 15 14.6 29.8 20.8 45.1 8.8 21.6 15.3 43.9 17.7 67.2 2.4 23.5.1 46.5-9.4 68.3-.6 1.5-1.4 2.8-2.8 5.4-34.8-58.7-51.1-119-28.4-185.2.7-.2 1.4-.5 2.1-.8zm-1467 136.1c-.1-13.5 2.9-25.8 7.2-37.9 6.6-18.6 16.9-35 29.7-49.9 19.5-22.8 41.6-42.6 66.8-58.9 2.2-1.4 4.5-2.7 6.9-4.2 2.9 45-57.1 127-110.6 150.9zm-188.4 181.5c60.5 37.5 86.2 94.3 96.6 161.8-3.1-1.4-5.4-2.2-7.4-3.3-26.1-14.3-44.8-35.8-58.2-61.9-14.9-28.9-25.3-59.2-30.4-91.4-.3-1.3-.4-2.6-.6-5.2zm95.4-37.3c-10.5-14.4-16.5-30.1-20.2-46.8-5.6-25.5-3.7-50.9.3-76.3 3.1-20.2 8.1-40 15.6-59.1.6-1.5 1.3-3 1.9-4.7 29.5 34.1 30.9 138.9 2.4 186.9zm68.2-29.2c9 70.9-18.8 126.6-64.8 177.1-3.7-11.9-4.3-22.9-4.1-34 .4-23.9 7.3-46.1 17.6-67.5 12.4-25.4 27.3-49.1 46.2-70.2 1.4-1.5 2.9-3 5.1-5.4zm1654.4-63.4c-.5 8.4-.7 16.8-1.6 25.2-3.3 31.6-10.3 62.3-24 91.2-9.8 20.6-23.6 38.2-42.2 51.6-1.6 1.1-3.2 2.2-5.8 3.9-1.3-29.7 3.8-57.4 12.3-84.6 11-35.3 31.7-64.1 59.8-87.7.5.1 1 .3 1.5.4zm-482.6 654.2c13.2 15.1 30.9 24.3 46.8 36 10.8 8 21.6 16.1 31.7 24.9 4.2 3.7 7.6 8.9 10 14 1.4 3.1 1.4 8.5-.4 11-1.6 2.1-7.4 3-10.3 1.8-9.5-4.1-19.2-8.4-27.6-14.4-19.1-13.5-34.7-30.5-44.5-52.1-3-6.6-4.6-13.8-6.9-20.8.3-.1.7-.3 1.2-.4zm-847.1.2c-1.8 14.5-7.9 27-16.3 38.6-13.4 18.6-29.8 34-50.3 44.5-4.8 2.5-10.2 4.1-15.5 4.9-6.3 1-9.8-2.6-8.3-8.9 1.1-4.7 3.2-9.7 6.5-13.1 6.9-7.3 14.4-14.3 22.5-20.3 14.8-11 30.3-21 45.2-31.8 5.7-4.1 10.7-9 16.2-13.9z"/></svg>